<svg width="92" height="92" viewBox="0 0 92 92" fill="none" xmlns="http://www.w3.org/2000/svg">
<circle cx="45.5961" cy="45.5961" r="45.5961" fill="black"/>
<path d="M45.0836 44.8859C42.125 44.8859 39.7043 43.9388 37.8216 42.0447C35.9388 40.1505 34.9974 37.7152 34.9974 34.7386C34.9974 31.7621 35.9388 29.3267 37.8216 27.4326C39.7043 25.5384 42.125 24.5913 45.0836 24.5913C48.0423 24.5913 50.463 25.5384 52.3457 27.4326C54.2285 29.3267 55.1699 31.7621 55.1699 34.7386C55.1699 37.7152 54.2285 40.1505 52.3457 42.0447C50.463 43.9388 48.0423 44.8859 45.0836 44.8859ZM23.5664 66.6012V60.2422C23.5664 58.5284 23.9923 57.0627 24.844 55.845C25.6957 54.6273 26.794 53.7028 28.1388 53.0714C31.1423 51.7184 34.0224 50.7037 36.7793 50.0272C39.5362 49.3507 42.3043 49.0125 45.0836 49.0125C47.863 49.0125 50.6199 49.362 53.3543 50.061C56.0888 50.7601 58.956 51.7679 61.9559 53.0845C63.3591 53.7216 64.484 54.6454 65.3308 55.8558C66.1775 57.0663 66.6009 58.5284 66.6009 60.2422V66.6012H23.5664ZM27.6009 62.5422H62.5664V60.2422C62.5664 59.5206 62.3535 58.8328 61.9276 58.1789C61.5017 57.525 60.975 57.0401 60.3474 56.7244C57.4785 55.3264 54.8561 54.368 52.4802 53.8494C50.1043 53.3307 47.6388 53.0714 45.0836 53.0714C42.5285 53.0714 40.0405 53.3307 37.6199 53.8494C35.1992 54.368 32.5768 55.3264 29.7526 56.7244C29.125 57.0401 28.6095 57.525 28.2061 58.1789C27.8026 58.8328 27.6009 59.5206 27.6009 60.2422V62.5422ZM45.0836 40.827C46.8319 40.827 48.2776 40.252 49.4207 39.102C50.5638 37.9519 51.1354 36.4975 51.1354 34.7386C51.1354 32.9797 50.5638 31.5253 49.4207 30.3753C48.2776 29.2252 46.8319 28.6502 45.0836 28.6502C43.3354 28.6502 41.8897 29.2252 40.7466 30.3753C39.6035 31.5253 39.0319 32.9797 39.0319 34.7386C39.0319 36.4975 39.6035 37.9519 40.7466 39.102C41.8897 40.252 43.3354 40.827 45.0836 40.827Z" fill="white"/>
</svg>
