<svg width="18" height="13" viewBox="0 0 18 13" fill="none" xmlns="http://www.w3.org/2000/svg">
<path d="M3.47855 0.146446C3.28329 -0.0488157 2.96671 -0.0488154 2.77145 0.146447L0.183058 2.73484C-0.0610194 2.97891 -0.0610194 3.37464 0.183058 3.61872C0.427136 3.8628 0.822864 3.8628 1.06694 3.61872L2.5 2.18566V9.67678C2.5 11.4027 3.89911 12.8018 5.625 12.8018H9.625C9.97018 12.8018 10.25 12.522 10.25 12.1768C10.25 11.8316 9.97018 11.5518 9.625 11.5518H5.625C4.58947 11.5518 3.75 10.7123 3.75 9.67678V2.18566L5.18306 3.61872C5.42714 3.8628 5.82286 3.8628 6.06694 3.61872C6.31102 3.37464 6.31102 2.97891 6.06694 2.73484L3.47855 0.146446Z" fill="#687684"/>
<path d="M14.3964 12.8321C14.5917 13.0273 14.9083 13.0273 15.1036 12.8321L17.6919 10.2437C17.936 9.9996 17.936 9.60387 17.6919 9.3598C17.4479 9.11572 17.0521 9.11572 16.8081 9.3598L15.375 10.7929V3.30174C15.375 1.57585 13.9759 0.176739 12.25 0.176739H8.25C7.90482 0.176739 7.625 0.456561 7.625 0.801739C7.625 1.14692 7.90482 1.42674 8.25 1.42674H12.25C13.2855 1.42674 14.125 2.2662 14.125 3.30174V10.7929L12.6919 9.3598C12.4479 9.11572 12.0521 9.11572 11.8081 9.3598C11.564 9.60387 11.564 9.9996 11.8081 10.2437L14.3964 12.8321Z" fill="#687684"/>
</svg>
